<?xml version="1.0" standalone="no"?>
<!DOCTYPE svg PUBLIC "-//W3C//DTD SVG 20010904//EN"
 "http://www.w3.org/TR/2001/REC-SVG-20010904/DTD/svg10.dtd">
<svg version="1.0" xmlns="http://www.w3.org/2000/svg"
 width="2777.000000pt" height="659.000000pt" viewBox="0 0 2777.000000 659.000000"
 preserveAspectRatio="xMidYMid meet">

<g transform="translate(0.000000,659.000000) scale(0.100000,-0.100000)"
fill="#000000" stroke="none">
<path d="M3212 5611 c-95 -146 -294 -450 -442 -676 l-268 -410 -837 -3 c-663
-2 -836 -5 -832 -15 3 -6 43 -98 89 -204 l83 -192 608 -1 c334 0 607 -4 607
-9 0 -4 -32 -57 -72 -117 -473 -719 -2128 -3257 -2126 -3260 2 -1 95 27 206
63 112 36 205 63 208 60 3 -2 -18 -44 -46 -92 -29 -47 -50 -88 -48 -90 3 -3
246 86 2244 820 l801 295 149 -55 c82 -29 577 -209 1099 -398 523 -190 1138
-413 1369 -496 230 -84 420 -151 421 -149 2 2 -21 44 -50 93 -30 50 -51 91
-47 92 4 2 100 -28 215 -65 114 -38 207 -67 207 -65 0 2 -314 484 -698 1071
-384 587 -749 1145 -812 1240 -62 95 -114 171 -117 169 -2 -3 -15 -64 -28
-137 l-25 -133 477 -816 c262 -449 552 -944 644 -1101 92 -157 163 -286 159
-288 -4 -2 -475 167 -1046 374 -572 207 -1237 448 -1478 535 l-440 159 -1484
-545 c-817 -300 -1487 -544 -1489 -541 -3 2 215 379 483 838 439 751 741 1268
1296 2218 l184 315 431 3 c400 2 432 3 437 20 3 9 10 46 16 82 5 36 19 116 30
179 11 62 20 120 20 127 0 12 -58 14 -340 14 -187 0 -340 2 -340 5 0 17 755
1294 761 1288 4 -5 105 -174 224 -378 119 -203 225 -376 236 -384 10 -7 19
-22 19 -33 0 -16 807 -1408 830 -1432 5 -5 11 8 15 30 11 63 11 64 60 64 25 0
45 2 45 5 0 3 -120 189 -267 413 -146 224 -466 713 -711 1087 -244 374 -447
683 -451 686 -3 4 -84 -113 -179 -260z"/>
<path d="M3765 4418 c-7 -22 -95 -547 -95 -571 -1 -12 11 -65 25 -117 24 -87
26 -107 22 -240 -8 -276 -91 -455 -311 -676 -144 -144 -254 -219 -432 -295
-95 -40 -281 -89 -343 -89 -31 0 -33 2 -28 28 3 15 76 334 161 709 86 375 156
684 156 685 0 2 -119 3 -265 3 l-266 0 -9 -35 c-47 -183 -410 -1631 -410
-1637 0 -9 590 -8 730 1 247 15 601 132 875 288 419 240 699 551 787 873 28
104 30 319 4 440 -60 277 -226 487 -479 605 -90 42 -115 48 -122 28z"/>
<path d="M739 751 l-29 -29 0 -326 0 -325 24 -28 24 -28 2647 0 2647 0 24 28
24 28 0 325 0 326 -29 29 -29 29 -2637 0 -2637 0 -29 -29z m1660 -333 c69
-169 84 -198 106 -198 8 0 15 -5 15 -11 0 -8 -18 -9 -57 -4 -32 4 -58 8 -59 8
0 1 -7 25 -15 52 l-15 50 -55 3 -56 3 -16 -43 c-16 -38 -16 -44 -2 -54 8 -6
15 -13 15 -15 0 -2 -27 -5 -60 -5 -63 -1 -74 5 -38 21 15 7 35 42 65 115 85
208 95 230 103 230 4 0 35 -69 69 -152z m1007 -34 c-3 43 -6 96 -6 118 0 31
-3 38 -20 38 -11 0 -20 5 -20 10 0 6 29 10 66 10 41 0 63 -4 59 -10 -3 -5 -12
-10 -19 -10 -10 0 -15 -41 -20 -167 -4 -92 -9 -169 -12 -172 -2 -3 -64 53
-136 124 l-130 130 6 -79 c3 -43 6 -94 6 -113 0 -26 5 -36 23 -43 28 -11 25
-12 -46 -14 -58 -2 -84 7 -47 17 19 5 20 14 20 160 0 86 3 163 6 172 5 13 36
-12 142 -117 l134 -133 -6 79z m1560 176 c21 0 24 -4 24 -40 0 -42 -14 -54
-23 -20 -10 39 -78 46 -97 9 -14 -26 -4 -43 48 -84 59 -46 82 -81 82 -126 0
-44 -37 -86 -84 -94 -57 -10 -203 1 -228 17 -13 9 -41 41 -63 71 -28 40 -47
57 -63 57 -22 0 -23 -3 -20 -62 3 -57 5 -63 26 -66 12 -2 20 -7 18 -11 -5 -8
-134 -6 -143 3 -3 3 1 6 9 6 25 0 28 22 28 171 l0 139 -27 13 c-25 11 -20 12
57 15 113 4 157 -9 176 -53 16 -39 7 -75 -28 -112 l-21 -22 42 -54 c49 -64 69
-82 99 -91 20 -7 22 -4 22 33 0 23 5 41 10 41 6 0 10 -7 10 -15 0 -25 38 -55
70 -55 20 0 35 8 45 24 21 31 7 61 -50 106 -75 60 -93 114 -54 164 20 26 73
48 97 40 8 -2 25 -4 38 -4z m-3811 -25 c57 -29 85 -75 85 -142 0 -68 -19 -114
-61 -146 -50 -37 -105 -48 -216 -43 -118 6 -113 5 -85 16 21 9 22 13 22 165 0
148 -1 155 -20 155 -11 0 -20 5 -20 11 0 8 39 10 128 7 102 -2 135 -7 167 -23z
m375 -10 c0 -41 -3 -42 -31 -14 -14 14 -30 19 -52 17 -32 -3 -32 -4 -35 -62
l-3 -59 55 5 56 5 0 -39 c0 -41 -14 -51 -23 -17 -5 17 -12 20 -44 17 l-38 -3
0 -65 0 -65 44 -3 c37 -3 48 1 63 20 l18 23 0 -31 c0 -17 -6 -36 -13 -43 -14
-11 -203 -8 -215 3 -3 3 2 6 10 6 25 0 28 22 28 171 l0 139 -25 10 c-14 5 -25
12 -25 15 0 3 52 5 115 5 l115 0 0 -35z m230 25 c0 -5 -9 -10 -20 -10 -20 0
-20 -5 -18 -147 l3 -148 53 -3 c47 -3 54 -1 59 17 8 31 23 25 23 -8 0 -45 -15
-50 -135 -46 -132 5 -125 4 -97 15 21 9 22 13 22 165 0 148 -1 155 -20 155
-11 0 -20 5 -20 10 0 6 32 10 75 10 43 0 75 -4 75 -10z m420 -25 c0 -38 -6
-43 -24 -21 -6 8 -31 16 -56 18 l-45 3 -3 -95 c-5 -135 5 -201 29 -207 10 -3
19 -9 19 -13 0 -8 -138 -5 -147 4 -4 3 1 6 10 6 24 0 28 29 25 175 l-3 129
-50 -3 c-30 -2 -53 -8 -58 -17 -10 -18 -28 -9 -22 11 3 8 7 22 10 30 4 12 30
15 160 15 l155 0 0 -35z m635 25 c-3 -5 -13 -10 -21 -10 -13 0 -15 -19 -12
-131 3 -130 3 -131 32 -156 24 -20 36 -24 65 -19 66 10 76 31 80 171 l3 125
-26 10 c-41 15 -31 20 39 20 37 0 65 -4 65 -10 0 -5 -6 -10 -14 -10 -10 0 -15
-26 -18 -117 -5 -133 -16 -166 -67 -200 -40 -27 -104 -30 -157 -8 -55 23 -74
75 -74 213 0 105 -1 112 -20 112 -11 0 -20 5 -20 10 0 6 32 10 76 10 47 0 73
-4 69 -10z m885 1 c0 -5 -9 -11 -20 -14 -20 -5 -20 -12 -18 -158 l3 -153 25
-6 c14 -3 20 -8 15 -11 -13 -8 -134 -4 -142 5 -3 3 1 6 9 6 19 0 28 58 28 175
0 101 -8 145 -26 145 -8 0 -14 5 -14 10 0 6 30 10 70 10 39 0 70 -4 70 -9z
m170 0 c0 -5 -6 -11 -14 -13 -11 -2 -6 -26 25 -108 22 -58 43 -108 48 -113 4
-4 27 42 51 103 42 107 43 111 24 125 -17 13 -13 14 44 15 58 0 83 -12 44 -22
-11 -3 -43 -62 -92 -171 -41 -92 -79 -165 -85 -164 -5 2 -41 77 -80 168 -58
137 -74 165 -92 167 -13 2 -23 8 -23 13 0 5 34 9 75 9 41 0 75 -4 75 -9z m480
-26 c0 -19 -4 -35 -10 -35 -5 0 -10 6 -10 14 0 14 -29 26 -67 26 -21 0 -23 -4
-23 -61 l0 -62 53 6 52 5 -3 -39 c-4 -42 -16 -51 -25 -19 -4 15 -14 20 -41 20
l-36 0 0 -70 0 -70 44 0 c33 0 48 5 59 20 18 26 26 17 18 -23 l-7 -32 -108 0
c-103 0 -139 7 -96 18 19 5 20 14 20 157 0 143 -1 152 -20 157 -50 13 -11 23
90 23 l110 0 0 -35z m870 26 c0 -5 -9 -11 -20 -14 -20 -5 -20 -12 -18 -153 3
-144 4 -149 26 -160 13 -6 20 -14 15 -16 -13 -6 -132 -2 -140 5 -3 4 1 7 9 7
23 0 28 30 28 178 0 126 -1 134 -20 139 -43 11 -17 23 50 23 39 0 70 -4 70 -9z
m493 -9 c-4 -15 60 -142 72 -142 2 0 20 29 40 66 29 52 34 68 25 80 -11 12 -4
14 44 14 31 0 56 -4 56 -10 0 -5 -7 -10 -14 -10 -17 0 -50 -41 -95 -119 -29
-48 -32 -60 -29 -124 3 -67 5 -72 28 -77 41 -10 9 -17 -65 -14 -84 2 -86 3
-57 14 20 8 22 16 22 73 0 57 -4 70 -46 137 -25 41 -53 83 -61 93 -24 26 -43
21 -43 -10 -1 -25 -2 -26 -13 -12 -8 10 -31 18 -60 20 l-47 4 2 -149 3 -150
25 -7 c33 -9 24 -11 -60 -13 -67 -1 -87 5 -55 18 12 4 15 31 15 153 l0 148
-47 -3 c-29 -2 -53 -10 -60 -20 -18 -22 -24 -11 -17 26 l7 32 217 0 c206 0
218 -1 213 -18z"/>
<path d="M2301 424 c-7 -21 -15 -45 -17 -51 -4 -9 5 -13 30 -13 41 0 43 7 17
64 l-17 39 -13 -39z"/>
<path d="M4540 455 l0 -75 35 0 c40 0 55 20 55 74 0 43 -29 76 -65 76 -24 0
-25 -2 -25 -75z"/>
<path d="M970 392 c0 -129 2 -142 19 -152 50 -26 140 0 165 49 23 43 21 128
-4 168 -27 45 -60 63 -124 70 l-56 6 0 -141z"/>
</g>
</svg>
